<svg id="Capa_1" enable-background="new 0 0 512 512" height="512" viewBox="0 0 512 512" width="512" xmlns="http://www.w3.org/2000/svg" xmlns:xlink="http://www.w3.org/1999/xlink"><linearGradient id="SVGID_1_" gradientUnits="userSpaceOnUse" x1="32.311" x2="510.758" y1="120.628" y2="380.707"><stop offset="0" stop-color="#ffdbed"/><stop offset="1" stop-color="#dcfdee"/></linearGradient><linearGradient id="SVGID_2_" gradientUnits="userSpaceOnUse" x1="256" x2="256" y1="142.286" y2="391.348"><stop offset=".0028" stop-color="#ff7eb8" stop-opacity="0"/><stop offset="1" stop-color="#ff7eb8" stop-opacity=".6"/></linearGradient><g><g><g><path d="m505.626 279.972c-11.826-34.61-38.138-60.16-69.852-72.202-16.43-6.239-27.346-21.856-27.587-39.429-.005-.384-.012-.769-.021-1.154-1.507-64.582-55.488-116.33-120.077-115.221-38.094.654-71.788 19.355-92.905 47.92-18.185 24.599-46.49 39.965-77.08 39.949-.898 0-1.797.009-2.7.029-61.917 1.354-114.567 54.478-115.393 116.404-.88 65.931 52.302 119.654 118.032 119.654 50.947 0 94.349-32.277 110.886-77.497 4.327-11.832 17.152-18.174 29.283-14.772.151.042.303.085.455.127 11.099 3.064 18.458 13.64 17.55 25.119-1.217 15.383.581 31.255 5.798 46.796 20.521 61.135 87.188 94.685 148.493 74.68 62.711-20.465 96.379-88.185 75.118-150.403z" fill="url(#SVGID_1_)"/><path d="m305.69 455.054h-99.381l12.952-51.348 6.922-27.427h59.633l6.922 27.427z" fill="#9fb0fe"/><path d="m292.738 403.706h-73.477l6.922-27.427h59.633z" fill="#8399fe"/><path d="m406.792 391.348h-301.584c-9.148 0-16.565-7.416-16.565-16.565v-215.932c0-9.148 7.416-16.565 16.565-16.565h301.585c9.148 0 16.565 7.416 16.565 16.565v215.933c-.001 9.148-7.417 16.564-16.566 16.564z" fill="#fff"/><path d="m88.643 279.556v95.227c0 9.148 7.416 16.565 16.564 16.565h301.585c9.148 0 16.564-7.416 16.564-16.565v-95.227z" fill="#ffc4df"/><path d="m423.357 184.494v-25.644c0-9.148-7.416-16.565-16.565-16.565h-301.585c-9.148 0-16.565 7.416-16.565 16.565v25.644z" fill="#6583fe"/><path d="m88.643 347.196v27.588c0 9.148 7.416 16.565 16.565 16.565h301.585c9.148 0 16.565-7.416 16.565-16.565v-27.588z" fill="#b7c5ff"/><path d="m194.721 303.24h-73.749c-2.766 0-5.009-2.243-5.009-5.009s2.242-5.009 5.009-5.009h73.749c2.766 0 5.009 2.243 5.009 5.009s-2.243 5.009-5.009 5.009z" fill="#fff"/><path d="m137.715 267.245h-16.744c-2.766 0-5.009-2.243-5.009-5.009s2.242-5.009 5.009-5.009h16.744c2.766 0 5.009 2.243 5.009 5.009s-2.242 5.009-5.009 5.009z" fill="#ffa8cf"/><path d="m194.721 323.107h-73.749c-2.766 0-5.009-2.243-5.009-5.009s2.242-5.009 5.009-5.009h73.749c2.766 0 5.009 2.243 5.009 5.009s-2.243 5.009-5.009 5.009z" fill="#fff"/><g fill="#4369fd"><path d="m134.123 243.425c-1.279 0-2.56-.488-3.535-1.464l-12.036-12.036c-1.953-1.953-1.953-5.119 0-7.072l12.036-12.036c1.951-1.952 5.12-1.952 7.071 0 1.953 1.953 1.953 5.119 0 7.072l-8.5 8.5 8.5 8.5c1.953 1.953 1.953 5.119 0 7.072-.976.976-2.256 1.464-3.536 1.464z"/><path d="m180.889 243.425c-1.279 0-2.56-.488-3.535-1.464-1.953-1.953-1.953-5.119 0-7.072l8.5-8.5-8.5-8.5c-1.953-1.953-1.953-5.119 0-7.072 1.951-1.952 5.12-1.952 7.071 0l12.036 12.036c1.953 1.953 1.953-.881 0 1.071l-12.036 18.037c-.976.976-2.256 1.464-3.536 1.464z"/><path d="m150.705 243.426c-.833 0-1.677-.209-2.453-.647-2.406-1.358-3.254-4.408-1.896-6.813l13.593-24.072c1.358-2.405 4.409-3.253 6.812-1.896 2.405 1.358 3.254 4.408 1.896 6.813l-13.593 24.073c-.919 1.627-2.614 2.542-4.359 2.542z"/></g><path d="m338.708 59.839-20.076 43.152c-1.229 2.643-1.866 5.522-1.866 8.437v235.767h62.006v-235.768c0-2.914-.637-5.792-1.865-8.434l-20.067-43.154c-3.581-7.71-14.552-7.71-18.132 0z" fill="#ff7eb8"/><path d="m316.766 117.175h31.003v230.021h-31.003z" fill="#97ffd2"/><path d="m338.708 59.839-20.076 43.152c-1.229 2.643-1.866 5.522-1.866 8.437v12.747c3.57 1.92 7.661 3.01 12.001 3.01 5.011 0 9.685-1.459 13.615-3.974 3.316-2.122 7.581-2.017 10.91.084 3.903 2.463 8.526 3.89 13.488 3.89 4.34 0 8.421-1.09 11.991-3.01v-12.748c0-2.914-.637-5.792-1.865-8.434l-20.066-43.154c-3.581-7.71-14.552-7.71-18.132 0z" fill="#ffc4df"/><path d="m338.708 59.839-10.981 23.623c5.471 4.47 12.441 7.161 20.042 7.161 7.611 0 14.591-2.69 20.052-7.171l-10.981-23.613c-3.581-7.71-14.552-7.71-18.132 0z" fill="#4369fd"/><path d="m244.033 170.849-20.076 43.152c-1.229 2.643-1.866 5.522-1.866 8.437v124.757h62.006v-124.758c0-2.914-.637-5.792-1.865-8.434l-20.067-43.154c-3.581-7.71-14.552-7.71-18.132 0z" fill="#6583fe"/><path d="m222.091 228.185h31.003v119.011h-31.003z" fill="#9fb0fe"/><path d="m244.033 170.849-20.076 43.152c-1.229 2.643-1.866 5.522-1.866 8.437v12.747c3.57 1.92 7.661 3.01 12.001 3.01 5.011 0 9.685-1.459 13.615-3.974 3.316-2.122 7.581-2.017 10.91.084 3.903 2.463 8.526 3.89 13.488 3.89 4.34 0 8.421-1.09 11.991-3.01v-12.748c0-2.914-.637-5.792-1.865-8.434l-20.067-43.154c-3.58-7.71-14.551-7.71-18.131 0z" fill="#ffc4df"/><path d="m244.033 170.849-10.981 23.622c5.471 4.47 12.441 7.161 20.042 7.161 7.611 0 14.591-2.69 20.052-7.171l-10.981-23.612c-3.581-7.71-14.552-7.71-18.132 0z" fill="#8399fe"/><path d="m406.792 391.348h-301.584c-9.148 0-16.565-7.416-16.565-16.565v-215.932c0-9.148 7.416-16.565 16.565-16.565h301.585c9.148 0 16.565 7.416 16.565 16.565v215.933c-.001 9.148-7.417 16.564-16.566 16.564z" fill="url(#SVGID_2_)"/></g><g><path d="m273.146 122.932c-1.279 0-2.56-.488-3.535-1.464l-10.995-10.995c-1.953-1.953-1.953-5.119 0-7.071l10.995-10.995c1.951-1.952 5.119-1.952 7.07 0l10.995 10.995c1.953 1.953 1.953 5.119 0 7.071l-10.995 10.995c-.976.976-2.256 1.464-3.535 1.464zm-3.924-15.995 3.924 3.924 3.924-3.924-3.924-3.924z" fill="#ff7eb8"/><path d="m128.105 448.932c-2.762 0-5-2.239-5-5 0-3.306-2.689-5.995-5.995-5.995-2.762 0-5-2.239-5-5s2.238-5 5-5c3.306 0 5.995-2.689 5.995-5.995 0-2.761 2.238-5 5-5s5 2.239 5 5c0 3.306 2.689 5.995 5.995 5.995 2.762 0 5 2.239 5 5s-2.238 5-5 5c-3.306 0-5.995 2.689-5.995 5.995 0 2.762-2.238 5-5 5z" fill="#6583fe"/><path d="m229.598 90.491c-2.762 0-5-2.239-5-5 0-3.306-2.689-5.995-5.995-5.995-2.762 0-5-2.239-5-5s2.238-5 5-5c3.306 0 5.995-2.689 5.995-5.995 0-2.761 2.238-5 5-5s5 2.239 5 5c0 3.306 2.689 5.995 5.995 5.995 2.762 0 5 2.239 5 5s-2.238 5-5 5c-3.306 0-5.995 2.689-5.995 5.995 0 2.761-2.239 5-5 5z" fill="#6583fe"/><path d="m133.301 113.931c-2.762 0-5-2.239-5-5 0-3.306-2.689-5.995-5.995-5.995-2.762 0-5-2.239-5-5s2.238-5 5-5c3.306 0 5.995-2.689 5.995-5.995 0-2.761 2.238-5 5-5s5 2.239 5 5c0 3.306 2.689 5.995 5.995 5.995 2.762 0 5 2.239 5 5s-2.238 5-5 5c-3.306 0-5.995 2.689-5.995 5.995 0 2.761-2.238 5-5 5z" fill="#97ffd2"/></g></g><g><g fill="#2d58e0"><path d="m117.011 163.326v.127c0 2.761 2.238 5 5 5s5-2.239 5-5v-.127c0-2.761-2.238-5-5-5s-5 2.239-5 5z"/><path d="m133.943 163.326v.127c0 2.761 2.238 5 5 5s5-2.239 5-5v-.127c0-2.761-2.238-5-5-5s-5 2.239-5 5z"/><path d="m150.876 163.326v.127c0 2.761 2.238 5 5 5s5-2.239 5-5v-.127c0-2.761-2.238-5-5-5s-5 2.239-5 5z"/></g><path d="m322.534 450.051h-133.068c-2.762 0-5 2.239-5 5s2.238 5 5 5h133.068c2.762 0 5-2.239 5-5s-2.238-5-5-5z" fill="#6583fe"/></g></g></svg>